<svg xmlns="http://www.w3.org/2000/svg" viewBox="-5 -5 236.63 118.22">
  <defs>
    <style>
      .cls-1{fill:none;stroke:#ebc95b;stroke-miterlimit:10}
    </style>
  </defs>
  <g id="Layer_2" data-name="Layer 2">
    <g id="logo_2" data-name="logo 2">
      <path d="M9.61.5H.5v53.6a20.71 20.71 0 1 0 14-19.6v10.15a11.62 11.62 0 1 1-4.89 9.45Z" class="path" stroke="#ebc95b" stroke-width="2"/>
      <path d="M51.06 74.82V54.1a11.62 11.62 0 0 1 18.39-9.44l6.49-6.49A20.73 20.73 0 0 0 42 54.1v20.72Zm57.22-41.45h9.11v74.32h-9.11zm-23 0V54.1a11.61 11.61 0 0 0 18.49 9.35v10.2a20.73 20.73 0 0 1-27.6-19.55V33.37Z" class="path" stroke="#ebc95b" stroke-width="2"/>
      <path d="M145.61 73.42a20.73 20.73 0 1 1 13.23-19.32v20.72h-9.12V54.1a11.61 11.61 0 1 0-4.11 8.9v10.42Z" class="path" stroke="#ebc95b" stroke-width="2"/>
      <path d="M158.84 74.82V54.1a20.72 20.72 0 1 1 41.44 0v20.72h-9.11V54.1a11.61 11.61 0 1 0-23.22 0v20.72Zm67.26 0a20.72 20.72 0 0 1-20.72-20.72V.5h9.11v53.6a11.61 11.61 0 0 0 11.61 11.61Z" class="path" stroke="#ebc95b" stroke-width="2"/>
      <path d="M218.15 33.37h7.95v9.11h-7.95zm7.95 36.9Z" class="path" stroke="#ebc95b" stroke-width="2"/>
    </g>
  </g>
</svg>
