<svg xmlns="http://www.w3.org/2000/svg" viewBox="0 0 226.6 108.19"><defs><style>.cls-1{fill:none;stroke:#ebc95b;stroke-miterlimit:10;}</style></defs><title>bryant logo 1</title><g id="Layer_2" data-name="Layer 2"><g id="logo_2" data-name="logo 2"><path class="cls-1" d="M9.61.5H.5V54.1a20.71,20.71,0,1,0,14-19.6V44.65A11.62,11.62,0,1,1,9.61,54.1Z"/><path class="cls-1" d="M51.06,74.82V54.1a11.62,11.62,0,0,1,18.39-9.44l6.49-6.49A20.73,20.73,0,0,0,42,54.1V74.82Z"/><rect class="cls-1" x="108.28" y="33.37" width="9.11" height="74.32"/><path class="cls-1" d="M85.28,33.37V54.1a11.61,11.61,0,0,0,18.49,9.35v10.2h0A20.73,20.73,0,0,1,76.17,54.1V33.37Z"/><path class="cls-1" d="M145.61,73.42A20.73,20.73,0,1,1,158.84,54.1V74.82h-9.12V54.1A11.61,11.61,0,1,0,145.61,63V73.42Z"/><path class="cls-1" d="M158.84,74.82V54.1a20.72,20.72,0,1,1,41.44,0V74.82h-9.11V54.1a11.61,11.61,0,1,0-23.22,0V74.82Z"/><path class="cls-1" d="M226.1,74.82A20.72,20.72,0,0,1,205.38,54.1V.5h9.11V54.1A11.61,11.61,0,0,0,226.1,65.71Z"/><rect class="cls-1" x="218.15" y="33.37" width="7.95" height="9.11"/><path class="cls-1" d="M226.1,70.27v0Z"/></g></g></svg>