<svg xmlns="http://www.w3.org/2000/svg" viewBox="0 0 177.14 108.19"><defs><style>.cls-1{fill:none;stroke:#ebc95b;stroke-miterlimit:10;}</style></defs><title>bryant logo 2</title><g id="Layer_2" data-name="Layer 2"><g id="logo_1" data-name="logo 1"><path class="cls-1" d="M9.61.5H.5V54.1a20.71,20.71,0,1,0,14-19.6V44.65A11.62,11.62,0,1,1,9.61,54.1Z"/><path class="cls-1" d="M42.19,74.82V54.1a11.62,11.62,0,0,1,18.39-9.44l6.49-6.49a20.73,20.73,0,0,0-34,15.93V74.82Z"/><rect class="cls-1" x="91.17" y="33.37" width="9.11" height="74.32"/><path class="cls-1" d="M68.17,33.37V54.1a11.61,11.61,0,0,0,18.49,9.35v10.2h0A20.73,20.73,0,0,1,59.06,54.1V33.37Z"/><path class="cls-1" d="M119.39,73.42A20.73,20.73,0,1,1,132.62,54.1V74.82H123.5V54.1A11.61,11.61,0,1,0,119.39,63V73.42Z"/><path class="cls-1" d="M123.46,74.82V54.1a20.73,20.73,0,1,1,41.45,0V74.82h-9.12V54.1a11.61,11.61,0,1,0-23.22,0V74.82Z"/><path class="cls-1" d="M176.64,75.29a20.73,20.73,0,0,1-20.73-20.72V1H165v53.6a11.61,11.61,0,0,0,11.61,11.61Z"/><rect class="cls-1" x="168.68" y="33.84" width="7.95" height="9.11"/></g></g></svg>